<?xml version="1.0" encoding="UTF-8"?>
<svg version="1.1" xmlns="http://www.w3.org/2000/svg" width="300" height="60">
<path d="M0 0 C4.36511655 2.22373862 7.49037534 4.78741574 10 9 C10.66 12.63 11.32 16.26 12 20 C4.41 19.67 -3.18 19.34 -11 19 C-8.52275191 23.01962016 -8.52275191 23.01962016 -5.6875 23.9375 C-2.84117542 24.22329702 -2.84117542 24.22329702 -0.0625 22.4375 C3 21 3 21 6.375 21.8125 C7.24125 22.204375 8.1075 22.59625 9 23 C8.74433121 26.45152861 7.73802926 27.24488569 5.125 29.6875 C0.62466364 33.01774891 -2.47914179 33.37429547 -8 33 C-13.67549553 30.95682161 -17.29873721 27.40252559 -20 22 C-20.71910796 14.89144099 -20.51392888 9.67134654 -16 4 C-11.29177787 -0.0983488 -6.09405458 -1.10093322 0 0 Z M-7 8 C-7 8.66 -7 9.32 -7 10 C-8.32 10.33 -9.64 10.66 -11 11 C-11 11.33 -11 11.66 -11 12 C-7.04 12 -3.08 12 1 12 C0.67 11.01 0.34 10.02 0 9 C-2.31 8.67 -4.62 8.34 -7 8 Z " fill="#EEEEEE" transform="translate(211,14)"/>
<path d="M0 0 C6.13682138 0.89578874 10.05040671 1.85356026 14 7 C15.66106667 10.51882893 16.27805447 13.42455233 16.4140625 17.30078125 C16.45273437 18.27724609 16.49140625 19.25371094 16.53125 20.25976562 C16.5621875 21.26716797 16.593125 22.27457031 16.625 23.3125 C16.66367187 24.33923828 16.70234375 25.36597656 16.7421875 26.42382812 C16.83614489 28.94893309 16.91914808 31.47444144 17 34 C13.7 33.67 10.4 33.34 7 33 C6.95101562 31.57945313 6.90203125 30.15890625 6.8515625 28.6953125 C6.77654064 26.83852144 6.70099256 24.98175159 6.625 23.125 C6.5940625 22.18785156 6.563125 21.25070313 6.53125 20.28515625 C6.49257812 19.38925781 6.45390625 18.49335938 6.4140625 17.5703125 C6.3826416 16.74289551 6.3512207 15.91547852 6.31884766 15.06298828 C6.17400863 12.78013915 6.17400863 12.78013915 4 11 C1.57540213 10.16507646 1.57540213 10.16507646 -1 10 C-1.99 10.66 -2.98 11.32 -4 12 C-4.41609272 14.32300384 -4.41609272 14.32300384 -4.29296875 17.0078125 C-4.2784668 18.48701172 -4.2784668 18.48701172 -4.26367188 19.99609375 C-4.2259668 21.54490234 -4.2259668 21.54490234 -4.1875 23.125 C-4.17396484 24.16527344 -4.16042969 25.20554687 -4.14648438 26.27734375 C-4.11105633 28.85178179 -4.05724812 31.42595474 -4 34 C-7.63 34 -11.26 34 -15 34 C-15.08704 29.41678618 -15.14040632 24.83378466 -15.1875 20.25 C-15.21263672 18.94804687 -15.23777344 17.64609375 -15.26367188 16.3046875 C-15.27333984 15.05429687 -15.28300781 13.80390625 -15.29296875 12.515625 C-15.31653442 10.78747559 -15.31653442 10.78747559 -15.34057617 9.02441406 C-14.96655039 5.7029579 -14.32903211 4.35295209 -12 2 C-9.84375 1.35546875 -9.84375 1.35546875 -7.5 1.1875 C-6.33984375 1.08501953 -6.33984375 1.08501953 -5.15625 0.98046875 C-3 1 -3 1 0 2 C0 1.34 0 0.68 0 0 Z " fill="#E9E9E9" transform="translate(240,13)"/>
<path d="M0 0 C5.49899736 -0.36659982 5.49899736 -0.36659982 7.66723633 1.2199707 C9.3602432 3.48113816 9.42231875 4.86080877 9.51171875 7.66796875 C9.54716797 8.56064453 9.58261719 9.45332031 9.61914062 10.37304688 C9.64169922 11.30181641 9.66425781 12.23058594 9.6875 13.1875 C9.73874023 14.59805664 9.73874023 14.59805664 9.79101562 16.03710938 C9.87348218 18.35795393 9.94263403 20.67842148 10 23 C15.2553502 22.9579991 15.2553502 22.9579991 19.46875 20.4453125 C20.38688754 16.2191794 20.43690711 11.97191084 20.56640625 7.66796875 C20.79882058 2.20117942 20.79882058 2.20117942 23 0 C25.31 0 27.62 0 30 0 C30 10.23 30 20.46 30 31 C27.03 31 24.06 31 21 31 C20.67 30.34 20.34 29.68 20 29 C19.01 29.66 18.02 30.32 17 31 C12.20310209 31.69920885 8.22540718 31.71482085 4 29.25 C0.59583918 25.42031907 -0.25212675 22.6914075 -0.1953125 17.578125 C-0.18564453 16.04091797 -0.18564453 16.04091797 -0.17578125 14.47265625 C-0.15902344 13.40917969 -0.14226562 12.34570312 -0.125 11.25 C-0.11597656 10.17105469 -0.10695313 9.09210937 -0.09765625 7.98046875 C-0.07411305 5.32008722 -0.04122799 2.66015664 0 0 Z " fill="#EDEDED" transform="translate(112,15)"/>
<path d="M0 0 C9.62366698 -0.2739834 9.62366698 -0.2739834 12.99609375 2.84765625 C14.5625 5.0625 14.5625 5.0625 15.87890625 7.28515625 C16.24886719 7.85105469 16.61882812 8.41695312 17 9 C17.66 9 18.32 9 19 9 C19.79526196 7.70215614 20.56107952 6.38620976 21.3125 5.0625 C23.50347584 1.94900802 24.51328242 1.11169619 28.28515625 0.24609375 C31.5411083 0.0228892 34.73802514 -0.0774356 38 0 C37.34 0.598125 36.68 1.19625 36 1.8125 C31.73832938 6.03732621 28.44874925 11.11355876 25 16 C28.98702 22.1124611 28.98702 22.1124611 33.375 27.9375 C35 30 35 30 35 32 C31.54659024 32.49139427 28.43483292 32.68492204 25 32 C22.32466667 29.71133594 20.55562726 27.14919665 19 24 C19 23.34 19 22.68 19 22 C18.34 22 17.68 22 17 22 C16.7525 22.721875 16.505 23.44375 16.25 24.1875 C14.75032522 27.56176825 13.80499205 29.53708015 11 32 C7.33750222 32.72404357 3.72780884 32.92930018 0 33 C1.08248691 31.29113021 2.16603294 29.58293129 3.25 27.875 C4.15492187 26.44800781 4.15492187 26.44800781 5.078125 24.9921875 C7.01877283 21.97077238 8.99999421 18.98230952 11 16 C10.28972656 15.01257812 9.57945313 14.02515625 8.84765625 13.0078125 C7.91919608 11.71359529 6.99081475 10.41932152 6.0625 9.125 C5.59392578 8.47402344 5.12535156 7.82304687 4.64257812 7.15234375 C1.11328125 2.2265625 1.11328125 2.2265625 0 0 Z " fill="#EEEEEE" transform="translate(74,14)"/>
<path d="M0 0 C1.05960938 0.00676758 1.05960938 0.00676758 2.140625 0.01367188 C3.88545275 0.02546125 5.630237 0.04339676 7.375 0.0625 C5.75315499 3.64763106 3.58243761 6.65242323 1.25 9.8125 C0.52554687 10.79734375 -0.19890625 11.7821875 -0.9453125 12.796875 C-1.49960938 13.54453125 -2.05390625 14.2921875 -2.625 15.0625 C0.015 15.0625 2.655 15.0625 5.375 15.0625 C5.66375 14.485 5.9525 13.9075 6.25 13.3125 C7.29166667 11.22916667 8.33333333 9.14583333 9.375 7.0625 C10.365 7.3925 11.355 7.7225 12.375 8.0625 C12.45650744 10.12433633 12.5144194 12.18711349 12.5625 14.25 C12.61470703 15.97283203 12.61470703 15.97283203 12.66796875 17.73046875 C12.34823533 21.3669035 11.55658273 23.1730914 9.375 26.0625 C6.92224859 27.2888757 5.3244219 27.17665314 2.5859375 27.16015625 C1.64492187 27.15693359 0.70390625 27.15371094 -0.265625 27.15039062 C-1.74289062 27.13782227 -1.74289062 27.13782227 -3.25 27.125 C-4.24257812 27.12048828 -5.23515625 27.11597656 -6.2578125 27.11132812 C-8.7136016 27.09952145 -11.16927104 27.083054 -13.625 27.0625 C-13.74160824 23.66695765 -13.81238372 20.27193321 -13.875 16.875 C-13.90851562 15.91529297 -13.94203125 14.95558594 -13.9765625 13.96679688 C-14.07569252 6.80465277 -14.07569252 6.80465277 -11.734375 2.94921875 C-7.97837106 -0.41031811 -4.816319 -0.05776028 0 0 Z " fill="#9070EC" transform="translate(13.625,32.9375)"/>
<path d="M0 0 C3.06303578 -0.08115993 6.12390815 -0.14057409 9.1875 -0.1875 C10.48397461 -0.22520508 10.48397461 -0.22520508 11.80664062 -0.26367188 C16.69054544 -0.31980871 20.07963204 -0.26570457 24 3 C26.42479736 6.63719605 26.38662577 8.85703482 26.625 13.1875 C26.69976563 14.45980469 26.77453125 15.73210938 26.8515625 17.04296875 C26.92503906 18.50669922 26.92503906 18.50669922 27 20 C22.1640625 16.28125 22.1640625 16.28125 20.6875 13.75 C19.18117423 11.80538092 19.18117423 11.80538092 17.08520508 11.82910156 C16.36228271 11.8494043 15.63936035 11.86970703 14.89453125 11.890625 C13.60933594 11.92671875 12.32414063 11.9628125 11 12 C11.721875 12.91523438 12.44375 13.83046875 13.1875 14.7734375 C14.1252527 15.97376095 15.06273895 17.1742926 16 18.375 C16.47695313 18.97828125 16.95390625 19.5815625 17.4453125 20.203125 C21 24.7734375 21 24.7734375 21 27 C18.60293877 27.10854617 16.21084162 27.18753157 13.8125 27.25 C13.13896484 27.28351562 12.46542969 27.31703125 11.77148438 27.3515625 C8.10958025 27.42301429 6.17849378 27.11534178 3.07421875 25.109375 C0.04902498 22.03290676 -0.12294145 20.40828141 -0.09765625 16.2109375 C-0.09443359 15.26992187 -0.09121094 14.32890625 -0.08789062 13.359375 C-0.07951172 12.37453125 -0.07113281 11.3896875 -0.0625 10.375 C-0.05798828 9.38242188 -0.05347656 8.38984375 -0.04882812 7.3671875 C-0.03702145 4.9113984 -0.020554 2.45572896 0 0 Z " fill="#9A9EEA" transform="translate(0,0)"/>
<path d="M0 0 C2.56491456 0.06028001 5.12421757 0.14737947 7.6875 0.25 C8.40873047 0.26417969 9.12996094 0.27835938 9.87304688 0.29296875 C13.32671277 0.45067039 15.80440264 0.91442615 19 2.3125 C22.28545343 6.72732805 21.52257979 11.41720523 21.3125 16.75 C21.28994141 17.82894531 21.26738281 18.90789063 21.24414062 20.01953125 C21.1852565 22.6810935 21.10307001 25.33984228 21 28 C18.27056463 28.05416741 15.54221436 28.09375225 12.8125 28.125 C12.04357422 28.14175781 11.27464844 28.15851562 10.48242188 28.17578125 C5.37971082 28.21958134 1.34875889 27.92933766 -2.75 24.5625 C-5.30610417 21.36736979 -5.108481 18.22088486 -5.0625 14.3125 C-5.05347656 13.31863281 -5.04445313 12.32476562 -5.03515625 11.30078125 C-5.02355469 10.54152344 -5.01195313 9.78226563 -5 9 C-1.68532105 10.53406629 0.03944771 11.86311633 2 15 C2 15.66 2 16.32 2 17 C4.97 16.67 7.94 16.34 11 16 C10.2059375 15.01257812 9.411875 14.02515625 8.59375 13.0078125 C7.56224612 11.71374399 6.53100992 10.41946209 5.5 9.125 C4.97535156 8.47402344 4.45070313 7.82304688 3.91015625 7.15234375 C3.41386719 6.52714844 2.91757812 5.90195312 2.40625 5.2578125 C1.71499023 4.39373779 1.71499023 4.39373779 1.00976562 3.51220703 C0 2 0 2 0 0 Z " fill="#711ED0" transform="translate(37,32)"/>
<path d="M0 0 C0.83595703 0.01353516 1.67191406 0.02707031 2.53320312 0.04101562 C4.58491498 0.07618783 6.63629275 0.12998952 8.6875 0.1875 C8.74561773 3.93743479 8.78113593 7.68725352 8.8125 11.4375 C8.82925781 12.50097656 8.84601562 13.56445312 8.86328125 14.66015625 C8.86972656 15.68496094 8.87617187 16.70976562 8.8828125 17.765625 C8.89328613 18.70825195 8.90375977 19.65087891 8.91455078 20.62207031 C8.6875 23.1875 8.6875 23.1875 6.6875 27.1875 C-2.7175 27.6825 -2.7175 27.6825 -12.3125 28.1875 C-10.427978 24.41845599 -8.23048777 21.25927777 -5.6875 17.9375 C-5.26726563 17.38320313 -4.84703125 16.82890625 -4.4140625 16.2578125 C-3.38311281 14.89883337 -2.34820089 13.54286165 -1.3125 12.1875 C-4.2825 11.8575 -7.2525 11.5275 -10.3125 11.1875 C-10.9725 12.5075 -11.6325 13.8275 -12.3125 15.1875 C-13.8125 17.4375 -13.8125 17.4375 -15.3125 19.1875 C-15.9725 19.1875 -16.6325 19.1875 -17.3125 19.1875 C-17.88278066 7.12712004 -17.88278066 7.12712004 -14.3125 3.1875 C-9.72507709 -0.45597243 -5.58304698 -0.17185385 0 0 Z " fill="#824FE7" transform="translate(49.3125,-0.1875)"/>
<path d="M0 0 C1.670625 0.061875 1.670625 0.061875 3.375 0.125 C3.375 3.095 3.375 6.065 3.375 9.125 C6.015 9.125 8.655 9.125 11.375 9.125 C11.625 11.4375 11.625 11.4375 11.375 14.125 C9.5625 15.9375 9.5625 15.9375 7.375 17.125 C6.385 17.125 5.395 17.125 4.375 17.125 C4.045 22.075 3.715 27.025 3.375 32.125 C5.025 32.125 6.675 32.125 8.375 32.125 C10.375 34.125 10.375 34.125 10.5 37.25 C10.45875 38.19875 10.4175 39.1475 10.375 40.125 C8.64725692 40.23392951 6.91749052 40.31101092 5.1875 40.375 C4.22457031 40.42140625 3.26164062 40.4678125 2.26953125 40.515625 C-1.64260826 39.98767095 -3.06864122 39.15611112 -5.625 36.125 C-6.36924776 32.87751002 -6.4154186 29.69702439 -6.4375 26.375 C-6.47520508 25.04275391 -6.47520508 25.04275391 -6.51367188 23.68359375 C-6.5724526 21.49695082 -6.60879539 19.31230468 -6.625 17.125 C-8.935 17.455 -11.245 17.785 -13.625 18.125 C-14.625 16.125 -14.625 16.125 -13.8125 13.625 C-12.625 11.125 -12.625 11.125 -10.625 9.125 C-8 9 -8 9 -5.625 9.125 C-5.66625 8.01125 -5.7075 6.8975 -5.75 5.75 C-5.57901299 0.79137666 -4.95862334 0.17098701 0 0 Z " fill="#EEEEEE" transform="translate(271.625,5.875)"/>
<path d="M0 0 C-2.0890592 6.51294926 -2.0890592 6.51294926 -4.68310547 7.89990234 C-6.43457398 8.65053171 -8.21621048 9.32979007 -10 10 C-10.02505615 10.60062256 -10.0501123 11.20124512 -10.07592773 11.82006836 C-10.1915528 14.52611437 -10.31442936 17.23178283 -10.4375 19.9375 C-10.49647461 21.35579102 -10.49647461 21.35579102 -10.55664062 22.80273438 C-10.59853516 23.70185547 -10.64042969 24.60097656 -10.68359375 25.52734375 C-10.73858032 26.77632446 -10.73858032 26.77632446 -10.79467773 28.05053711 C-11 30 -11 30 -12 31 C-13.68183948 31.23287008 -15.3712416 31.41264166 -17.0625 31.5625 C-17.98160156 31.64628906 -18.90070313 31.73007812 -19.84765625 31.81640625 C-20.55792969 31.87699219 -21.26820313 31.93757813 -22 32 C-21.90638035 27.92450059 -21.80026839 23.84953664 -21.68261719 19.7746582 C-21.6443565 18.38868093 -21.60949844 17.00260535 -21.578125 15.61645508 C-21.53241301 13.6229836 -21.47341075 11.62983086 -21.4140625 9.63671875 C-21.3826416 8.43748779 -21.3512207 7.23825684 -21.31884766 6.00268555 C-21 3 -21 3 -19 0 C-15.5 -0.1875 -15.5 -0.1875 -12 0 C-9.24912742 0 -6.59291948 -0.47421603 -3.875 -0.87890625 C-2 -1 -2 -1 0 0 Z " fill="#ECECEC" transform="translate(168,15)"/>
<path d="M0 0 C1.57043101 0.01330874 3.14079971 0.03717648 4.7109375 0.0703125 C5.51273438 0.07933594 6.31453125 0.08835937 7.140625 0.09765625 C9.12252273 0.12125027 11.10426731 0.15712185 13.0859375 0.1953125 C12.7559375 2.5053125 12.4259375 4.8153125 12.0859375 7.1953125 C9.4459375 8.1853125 6.8059375 9.1753125 4.0859375 10.1953125 C3.7559375 17.1253125 3.4259375 24.0553125 3.0859375 31.1953125 C0.1159375 31.1953125 -2.8540625 31.1953125 -5.9140625 31.1953125 C-5.96345365 27.10192598 -5.99977751 23.00865452 -6.02392578 18.91503906 C-6.03399127 17.52210469 -6.04764484 16.12919148 -6.06494141 14.73632812 C-6.0891647 12.7357689 -6.09947064 10.73505635 -6.109375 8.734375 C-6.11984863 7.52990723 -6.13032227 6.32543945 -6.14111328 5.08447266 C-5.77506245 0.42657417 -4.57584801 0.22833573 0 0 Z " fill="#EEEEEE" transform="translate(175.9140625,14.8046875)"/>
<path d="M0 0 C0.33 0 0.66 0 1 0 C1.33 5.94 1.66 11.88 2 18 C3.485 15.525 3.485 15.525 5 13 C8.6875 12.1875 8.6875 12.1875 12 12 C11.01 11.67 10.02 11.34 9 11 C9.33 10.34 9.66 9.68 10 9 C12.97 9 15.94 9 19 9 C19.66 7.68 20.32 6.36 21 5 C21.66666667 3.66666667 22.33333333 2.33333333 23 1 C23.99 1.33 24.98 1.66 26 2 C26.08150744 4.06183633 26.1394194 6.12461349 26.1875 8.1875 C26.23970703 9.91033203 26.23970703 9.91033203 26.29296875 11.66796875 C25.97323533 15.3044035 25.18158273 17.1105914 23 20 C20.54724859 21.2263757 18.9494219 21.11415314 16.2109375 21.09765625 C15.36321777 21.09515869 14.51549805 21.09266113 13.64208984 21.09008789 C12.5639502 21.08098389 11.48581055 21.07187988 10.375 21.0625 C6.95125 21.041875 3.5275 21.02125 0 21 C0 14.07 0 7.14 0 0 Z " fill="#8351E3" transform="translate(0,39)"/>
<path d="M0 0 C5.94 0 11.88 0 18 0 C18 2.64 18 5.28 18 8 C17.67 8 17.34 8 17 8 C17 6.35 17 4.7 17 3 C15.04105639 3.11306697 15.04105639 3.11306697 13 4 C11.76709799 6.45704762 11.76709799 6.45704762 11 9 C10 10 10 10 7.53125 10.1328125 C6.03078125 10.12894531 6.03078125 10.12894531 4.5 10.125 C3.4996875 10.12757812 2.499375 10.13015625 1.46875 10.1328125 C-1 10 -1 10 -2 9 C-2.04092937 6.66702567 -2.04241723 4.33294775 -2 2 C-1.34 2 -0.68 2 0 2 C0 1.34 0 0.68 0 0 Z " fill="#8E6DED" transform="translate(40,0)"/>
<path d="M0 0 C0.99 0.33 1.98 0.66 3 1 C3.08150744 3.06183633 3.1394194 5.12461349 3.1875 7.1875 C3.23970703 8.91033203 3.23970703 8.91033203 3.29296875 10.66796875 C2.97323533 14.3044035 2.18158273 16.1105914 0 19 C-0.66 19.33 -1.32 19.66 -2 20 C-4.625 19.0625 -4.625 19.0625 -7 18 C-6.34 16.68 -5.68 15.36 -5 14 C-5.66 13.67 -6.32 13.34 -7 13 C-6.34 12.34 -5.68 11.68 -5 11 C-7.97 10.67 -10.94 10.34 -14 10 C-13.67 9.34 -13.34 8.68 -13 8 C-10.03 8 -7.06 8 -4 8 C-3.34 6.68 -2.68 5.36 -2 4 C-1.33333333 2.66666667 -0.66666667 1.33333333 0 0 Z " fill="#723CCD" transform="translate(23,40)"/>
<path d="M0 0 C0.99 0.33 1.98 0.66 3 1 C2.67 1.66 2.34 2.32 2 3 C2 4.65 2 6.3 2 8 C5.96 8 9.92 8 14 8 C14 9.32 14 10.64 14 12 C13.01 12.495 13.01 12.495 12 13 C12 12.01 12 11.02 12 10 C8.7 10 5.4 10 2 10 C1.34 11.32 0.68 12.64 0 14 C-1.5 16.25 -1.5 16.25 -3 18 C-3.66 18 -4.32 18 -5 18 C-5.55607983 6.23994134 -5.55607983 6.23994134 -2 2 C-1.34 1.34 -0.68 0.68 0 0 Z " fill="#7967C9" transform="translate(37,1)"/>
<path d="M0 0 C0.38063221 2.3260857 0.71269945 4.66055264 1 7 C-0.56367978 8.56367978 -2.27838393 8.383179 -4.4375 8.625 C-5.64212891 8.76808594 -5.64212891 8.76808594 -6.87109375 8.9140625 C-9 9 -9 9 -11 8 C-11 6.35 -11 4.7 -11 3 C-11.99 3.33 -12.98 3.66 -14 4 C-13.67 2.68 -13.34 1.36 -13 0 C-11.58456585 -0.19658808 -10.16755969 -0.38187546 -8.75 -0.5625 C-7.96109375 -0.66691406 -7.1721875 -0.77132812 -6.359375 -0.87890625 C-3.99467126 -1.00027349 -2.2488963 -0.69633257 0 0 Z M-4 1 C-3 4 -3 4 -3 4 Z M-9 2 C-9 3.98 -9 5.96 -9 8 C-8.67 8 -8.34 8 -8 8 C-8 6.02 -8 4.04 -8 2 C-8.33 2 -8.66 2 -9 2 Z " fill="#E5E5E5" transform="translate(297,38)"/>
<path d="M0 0 C3.22153722 1.37780621 3.91960518 1.85930906 5.75 5.0625 C7.62466109 8.10249521 7.62466109 8.10249521 10.03125 8.61328125 C12.01127742 8.84684082 14.0073518 8.93357839 16 9 C16 9.33 16 9.66 16 10 C14.95199219 10.05607422 14.95199219 10.05607422 13.8828125 10.11328125 C12.51769531 10.21189453 12.51769531 10.21189453 11.125 10.3125 C9.76761719 10.39951172 9.76761719 10.39951172 8.3828125 10.48828125 C5.63778399 10.7882039 5.63778399 10.7882039 4 14 C5.32 14.99 6.64 15.98 8 17 C4.87525593 16.74664237 3.39548758 16.40912508 1.1875 14.125 C-0.58593872 9.458056 -0.23340442 4.93607135 0 0 Z " fill="#6D27C7" transform="translate(32,41)"/>
<path d="M0 0 C2.5999298 2.51027705 4.99091227 4.9863684 7 8 C7 8.66 7 9.32 7 10 C2.05 10 -2.9 10 -8 10 C-7.67 9.34 -7.34 8.68 -7 8 C-4.4375 7.375 -4.4375 7.375 -2 7 C-1.855625 6.21625 -1.71125 5.4325 -1.5625 4.625 C-1 2 -1 2 0 0 Z " fill="#786FBF" transform="translate(14,17)"/>
<path d="M0 0 C0.99 0 1.98 0 3 0 C3.495 6.93 3.495 6.93 4 14 C-1 10 -1 10 -2.48828125 7.765625 C-3.88950666 5.74236193 -3.88950666 5.74236193 -6.48046875 5.609375 C-7.37378906 5.65578125 -8.26710938 5.7021875 -9.1875 5.75 C-10.08855469 5.78609375 -10.98960938 5.8221875 -11.91796875 5.859375 C-12.60503906 5.90578125 -13.29210938 5.9521875 -14 6 C-14 5.34 -14 4.68 -14 4 C-13.24074219 3.96261719 -12.48148438 3.92523438 -11.69921875 3.88671875 C-10.70535156 3.82097656 -9.71148437 3.75523438 -8.6875 3.6875 C-7.70136719 3.62949219 -6.71523438 3.57148438 -5.69921875 3.51171875 C-2.67485405 2.93835873 -2.0087039 2.19720398 0 0 Z " fill="#756EB4" transform="translate(23,6)"/>
<path d="M0 0 C1.22589844 0.01353516 1.22589844 0.01353516 2.4765625 0.02734375 C3.41628906 0.04474609 3.41628906 0.04474609 4.375 0.0625 C3.73046875 0.33835938 3.0859375 0.61421875 2.421875 0.8984375 C0.08729528 1.91007889 0.08729528 1.91007889 -0.375 4.6875 C-0.4575 5.47125 -0.54 6.255 -0.625 7.0625 C0.695 7.7225 2.015 8.3825 3.375 9.0625 C1.89593108 9.08939216 0.41672517 9.10884621 -1.0625 9.125 C-2.29806641 9.14240234 -2.29806641 9.14240234 -3.55859375 9.16015625 C-5.625 9.0625 -5.625 9.0625 -6.625 8.0625 C-6.66592937 5.72952567 -6.66741723 3.39544775 -6.625 1.0625 C-4.21954362 -0.14022819 -2.67503047 -0.03821472 0 0 Z " fill="#977FF8" transform="translate(44.625,0.9375)"/>
<path d="M0 0 C4.95 0 9.9 0 15 0 C13.38262276 3.23475448 12.52370777 4.70572021 10 7 C9.67 5.68 9.34 4.36 9 3 C7.700625 2.87625 6.40125 2.7525 5.0625 2.625 C2.84765625 2.4140625 2.84765625 2.4140625 1 2 C0.67 1.34 0.34 0.68 0 0 Z " fill="#6251A7" transform="translate(6,33)"/>
<path d="M0 0 C5.61 0 11.22 0 17 0 C17 0.33 17 0.66 17 1 C16.08476562 1.04898437 15.16953125 1.09796875 14.2265625 1.1484375 C13.03804687 1.22320312 11.84953125 1.29796875 10.625 1.375 C8.84996094 1.47941406 8.84996094 1.47941406 7.0390625 1.5859375 C3.89437681 1.70217346 3.89437681 1.70217346 2 4 C1.6936141 6.73434962 1.4886664 9.38279821 1.375 12.125 C1.33632813 12.87910156 1.29765625 13.63320312 1.2578125 14.41015625 C1.16348969 16.27303184 1.08065338 18.13648255 1 20 C0.67 20 0.34 20 0 20 C0 13.4 0 6.8 0 0 Z " fill="#B5C3FB" transform="translate(1,1)"/>
<path d="M0 0 C0.33 0.66 0.66 1.32 1 2 C0.67 2.66 0.34 3.32 0 4 C3.63 4 7.26 4 11 4 C11.33 4.66 11.66 5.32 12 6 C4.08 6.495 4.08 6.495 -4 7 C-2 3 -2 3 0 0 Z " fill="#4E2F90" transform="translate(41,21)"/>
<path d="M0 0 C0.33 0 0.66 0 1 0 C1 1.65 1 3.3 1 5 C1.99 5 2.98 5 4 5 C3.38722388 7.96175123 2.74627478 9.38058783 1 12 C0.34 12 -0.32 12 -1 12 C-1.02712066 10.56260487 -1.04645067 9.12506137 -1.0625 7.6875 C-1.07410156 6.88699219 -1.08570313 6.08648437 -1.09765625 5.26171875 C-1 3 -1 3 0 0 Z " fill="#927EED" transform="translate(34,6)"/>
<path d="M0 0 C1.98 0 3.96 0 6 0 C5.67 0.99 5.34 1.98 5 3 C6.37492804 6.1668838 6.37492804 6.1668838 8 9 C4.20620942 7.50958227 2.31656242 5.30937488 0 2 C0 1.34 0 0.68 0 0 Z " fill="#7C38DB" transform="translate(39,35)"/>
<path d="M0 0 C0.99 0.33 1.98 0.66 3 1 C3 5.29 3 9.58 3 14 C2.67 14 2.34 14 2 14 C2 11.03 2 8.06 2 5 C0.68 4.67 -0.64 4.34 -2 4 C-1.34 2.68 -0.68 1.36 0 0 Z " fill="#482B80" transform="translate(23,40)"/>
<path d="M0 0 C0.99 0 1.98 0 3 0 C3 2.64 3 5.28 3 8 C2.67 7.01 2.34 6.02 2 5 C1.01 4.67 0.02 4.34 -1 4 C-0.67 2.68 -0.34 1.36 0 0 Z " fill="#8C53EB" transform="translate(22,45)"/>
<path d="M0 0 C0.99 0.33 1.98 0.66 3 1 C3.6875 3.0625 3.6875 3.0625 4 5 C2.02 5.99 2.02 5.99 0 7 C0 4.69 0 2.38 0 0 Z " fill="#7C36DC" transform="translate(33,42)"/>
<path d="M0 0 C-0.66 1.32 -1.32 2.64 -2 4 C-2.33 3.01 -2.66 2.02 -3 1 C-5.97 1 -8.94 1 -12 1 C-12 0.67 -12 0.34 -12 0 C-10.37585622 -0.19477739 -8.75063577 -0.38059458 -7.125 -0.5625 C-6.22007813 -0.66691406 -5.31515625 -0.77132813 -4.3828125 -0.87890625 C-2 -1 -2 -1 0 0 Z " fill="#6443B3" transform="translate(52,10)"/>
<path d="M0 0 C1.32 1.32 2.64 2.64 4 4 C2.68 3.34 1.36 2.68 0 2 C0 1.34 0 0.68 0 0 Z " fill="#E4E4E4" transform="translate(113,42)"/>
<path d="M0 0 C0.66 0.33 1.32 0.66 2 1 C0.68 1.99 -0.64 2.98 -2 4 C-1.34 2.68 -0.68 1.36 0 0 Z " fill="#04001E" transform="translate(2,33)"/>
<path d="M0 0 C0.99 0.99 1.98 1.98 3 3 C2.34 3.66 1.68 4.32 1 5 C0.67 3.35 0.34 1.7 0 0 Z " fill="#DADADA" transform="translate(82,27)"/>
<path d="M0 0 C1.32 1.32 2.64 2.64 4 4 C2.68 3.34 1.36 2.68 0 2 C0 1.34 0 0.68 0 0 Z " fill="#000016" transform="translate(0,23)"/>
<path d="M0 0 C0 0.99 0 1.98 0 3 C-0.99 3.495 -0.99 3.495 -2 4 C-1.34 2.68 -0.68 1.36 0 0 Z " fill="#080023" transform="translate(14,44)"/>
<path d="M0 0 C0 0.99 0 1.98 0 3 C-0.99 3.495 -0.99 3.495 -2 4 C-1.34 2.68 -0.68 1.36 0 0 Z " fill="#03000B" transform="translate(18,39)"/>
<path d="M0 0 C0 0.99 0 1.98 0 3 C-0.99 3.495 -0.99 3.495 -2 4 C-1.34 2.68 -0.68 1.36 0 0 Z " fill="#040016" transform="translate(21,35)"/>
<path d="M0 0 C0.66 0.33 1.32 0.66 2 1 C0.02 1.99 0.02 1.99 -2 3 C-1.34 2.01 -0.68 1.02 0 0 Z " fill="#D4D4D4" transform="translate(166,21)"/>
<path d="M0 0 C0 0.99 0 1.98 0 3 C-0.99 3.495 -0.99 3.495 -2 4 C-1.34 2.68 -0.68 1.36 0 0 Z " fill="#03001C" transform="translate(41,18)"/>
<path d="M0 0 C0 0.99 0 1.98 0 3 C-0.99 3.495 -0.99 3.495 -2 4 C-1.34 2.68 -0.68 1.36 0 0 Z " fill="#02001C" transform="translate(39,13)"/>
<path d="M0 0 C0 0.99 0 1.98 0 3 C-0.99 3.495 -0.99 3.495 -2 4 C-1.34 2.68 -0.68 1.36 0 0 Z " fill="#05010E" transform="translate(45,13)"/>
<path d="M0 0 C0 0.99 0 1.98 0 3 C-0.66 2.67 -1.32 2.34 -2 2 C-1.34 1.34 -0.68 0.68 0 0 Z " fill="#07000D" transform="translate(25,56)"/>
<path d="M0 0 C0 0.99 0 1.98 0 3 C-0.66 2.67 -1.32 2.34 -2 2 C-1.34 1.34 -0.68 0.68 0 0 Z " fill="#C7C7C7" transform="translate(87,44)"/>
<path d="M0 0 C0.99 0.99 1.98 1.98 3 3 C2.01 2.67 1.02 2.34 0 2 C0 1.34 0 0.68 0 0 Z " fill="#B3B3B3" transform="translate(266,43)"/>
<path d="M0 0 C0.66 0.33 1.32 0.66 2 1 C1.01 1.66 0.02 2.32 -1 3 C-0.67 2.01 -0.34 1.02 0 0 Z " fill="#EBEBEB" transform="translate(91,38)"/>
<path d="M0 0 C0.66 0.33 1.32 0.66 2 1 C1.01 1.66 0.02 2.32 -1 3 C-0.67 2.01 -0.34 1.02 0 0 Z " fill="#C9C9C9" transform="translate(237,24)"/>
<path d="M0 0 C0.66 0.33 1.32 0.66 2 1 C1.01 1.66 0.02 2.32 -1 3 C-0.67 2.01 -0.34 1.02 0 0 Z " fill="#E7E7E7" transform="translate(181,24)"/>
<path d="M0 0 C0 0.99 0 1.98 0 3 C-0.66 2.67 -1.32 2.34 -2 2 C-1.34 1.34 -0.68 0.68 0 0 Z " fill="#E4E4E4" transform="translate(283,20)"/>
<path d="M0 0 C0.66 0.33 1.32 0.66 2 1 C1.01 1.66 0.02 2.32 -1 3 C-0.67 2.01 -0.34 1.02 0 0 Z " fill="#CCCCCC" transform="translate(194,16)"/>
<path d="M0 0 C0.66 0.33 1.32 0.66 2 1 C1.01 1.66 0.02 2.32 -1 3 C-0.67 2.01 -0.34 1.02 0 0 Z " fill="#EDEDED" transform="translate(226,14)"/>
<path d="M0 0 C0.66 0.33 1.32 0.66 2 1 C1.01 1.66 0.02 2.32 -1 3 C-0.67 2.01 -0.34 1.02 0 0 Z " fill="#EBEBEB" transform="translate(97,14)"/>
<path d="M0 0 C0.66 0.33 1.32 0.66 2 1 C1.01 1.66 0.02 2.32 -1 3 C-0.67 2.01 -0.34 1.02 0 0 Z " fill="#D4D4D4" transform="translate(170,14)"/>
<path d="M0 0 C0.66 0.33 1.32 0.66 2 1 C1.01 1.66 0.02 2.32 -1 3 C-0.67 2.01 -0.34 1.02 0 0 Z " fill="#D3D3D3" transform="translate(133,14)"/>
<path d="M0 0 C0.99 0.33 1.98 0.66 3 1 C2.67 1.66 2.34 2.32 2 3 C1.34 2.01 0.68 1.02 0 0 Z " fill="#E5E5E5" transform="translate(85,14)"/>
<path d="M0 0 C0.66 0.33 1.32 0.66 2 1 C1.01 1.66 0.02 2.32 -1 3 C-0.67 2.01 -0.34 1.02 0 0 Z " fill="#B0B0B0" transform="translate(266,5)"/>
<path d="M0 0 C0.99 0.33 1.98 0.66 3 1 C2.67 1.66 2.34 2.32 2 3 C1.34 2.01 0.68 1.02 0 0 Z " fill="#01070C" transform="translate(23,1)"/>
<path d="M0 0 C0.99 0.33 1.98 0.66 3 1 C2.01 1 1.02 1 0 1 C0 0.67 0 0.34 0 0 Z " fill="#060026" transform="translate(34,58)"/>
<path d="M0 0 C0.99 0.495 0.99 0.495 2 1 C1.67 1.66 1.34 2.32 1 3 C0.67 2.01 0.34 1.02 0 0 Z " fill="#0A0026" transform="translate(32,55)"/>
<path d="M0 0 C0 3 0 3 0 3 Z " fill="#060208" transform="translate(19,45)"/>
<path d="M0 0 C0.66 0.33 1.32 0.66 2 1 C1.01 1 0.02 1 -1 1 C-0.67 0.67 -0.34 0.34 0 0 Z " fill="#E6E6E6" transform="translate(216,44)"/>
<path d="M0 0 C0.99 0.33 1.98 0.66 3 1 C2.01 1 1.02 1 0 1 C0 0.67 0 0.34 0 0 Z " fill="#BFBFBF" transform="translate(195,44)"/>
<path d="M0 0 C0.99 0.495 0.99 0.495 2 1 C1.67 1.66 1.34 2.32 1 3 C0.67 2.01 0.34 1.02 0 0 Z " fill="#030027" transform="translate(37,43)"/>
<path d="M0 0 C0.99 0.495 0.99 0.495 2 1 C1.67 1.66 1.34 2.32 1 3 C0.67 2.01 0.34 1.02 0 0 Z " fill="#04000B" transform="translate(43,43)"/>
<path d="M0 0 C0.99 0.495 0.99 0.495 2 1 C1.67 1.66 1.34 2.32 1 3 C0.67 2.01 0.34 1.02 0 0 Z " fill="#949494" transform="translate(192,40)"/>
<path d="M0 0 C0 3 0 3 0 3 Z " fill="#C8C8C8" transform="translate(220,40)"/>
<path d="M0 0 C0.99 0.495 0.99 0.495 2 1 C1.67 1.66 1.34 2.32 1 3 C0.67 2.01 0.34 1.02 0 0 Z " fill="#C9C8C9" transform="translate(107,40)"/>
<path d="M0 0 C0 3 0 3 0 3 Z " fill="#FEFEFE" transform="translate(89,41)"/>
<path d="M0 0 C0 3 0 3 0 3 Z " fill="#E5E7E6" transform="translate(76,40)"/>
<path d="M0 0 C0.99 0.495 0.99 0.495 2 1 C1.67 1.66 1.34 2.32 1 3 C0.67 2.01 0.34 1.02 0 0 Z " fill="#0C0027" transform="translate(39,38)"/>
<path d="M0 0 C0 3 0 3 0 3 Z " fill="#C7C7C7" transform="translate(79,36)"/>
<path d="M0 0 C0.66 0.33 1.32 0.66 2 1 C1.01 1 0.02 1 -1 1 C-0.67 0.67 -0.34 0.34 0 0 Z " fill="#E9E9E9" transform="translate(210,35)"/>
<path d="M0 0 C0.99 0.495 0.99 0.495 2 1 C1.67 1.66 1.34 2.32 1 3 C0.67 2.01 0.34 1.02 0 0 Z " fill="#CACACA" transform="translate(102,33)"/>
<path d="M0 0 C0 3 0 3 0 3 Z " fill="#ACACAC" transform="translate(100,29)"/>
<path d="M0 0 C0 3 0 3 0 3 Z " fill="#C8C8C8" transform="translate(102,26)"/>
<path d="M0 0 C0.99 0.495 0.99 0.495 2 1 C1.67 1.66 1.34 2.32 1 3 C0.67 2.01 0.34 1.02 0 0 Z " fill="#CFCFCF" transform="translate(79,23)"/>
<path d="M0 0 C0.99 0.495 0.99 0.495 2 1 C1.67 1.66 1.34 2.32 1 3 C0.67 2.01 0.34 1.02 0 0 Z " fill="#020015" transform="translate(20,22)"/>
<path d="M0 0 C0 3 0 3 0 3 Z " fill="#E8E8E8" transform="translate(107,19)"/>
<path d="M0 0 C0.66 0 1.32 0 2 0 C2 0.66 2 1.32 2 2 C1.34 2 0.68 2 0 2 C0 1.34 0 0.68 0 0 Z " fill="#E0E0E0" transform="translate(91,21)"/>
<path d="M0 0 C0.99 0.495 0.99 0.495 2 1 C1.67 1.66 1.34 2.32 1 3 C0.67 2.01 0.34 1.02 0 0 Z " fill="#BEBEBE" transform="translate(77,20)"/>
<path d="M0 0 C0 3 0 3 0 3 Z " fill="#DFDFDF" transform="translate(192,19)"/>
<path d="M0 0 C0.99 0.495 0.99 0.495 2 1 C1.67 1.66 1.34 2.32 1 3 C0.67 2.01 0.34 1.02 0 0 Z " fill="#01020A" transform="translate(16,17)"/>
<path d="M0 0 C0.99 0.495 0.99 0.495 2 1 C1.67 1.66 1.34 2.32 1 3 C0.67 2.01 0.34 1.02 0 0 Z " fill="#00000F" transform="translate(22,17)"/>
<path d="M0 0 C0.99 0.33 1.98 0.66 3 1 C2.01 1 1.02 1 0 1 C0 0.67 0 0.34 0 0 Z " fill="#A8A8A8" transform="translate(249,14)"/>
<path d="M0 0 C0.66 0.33 1.32 0.66 2 1 C1.01 1 0.02 1 -1 1 C-0.67 0.67 -0.34 0.34 0 0 Z " fill="#E9E9E9" transform="translate(197,14)"/>
<path d="M0 0 C0.99 0.495 0.99 0.495 2 1 C1.67 1.66 1.34 2.32 1 3 C0.67 2.01 0.34 1.02 0 0 Z " fill="#00000C" transform="translate(19,13)"/>
<path d="M0 0 C0.99 0.495 0.99 0.495 2 1 C1.67 1.66 1.34 2.32 1 3 C0.67 2.01 0.34 1.02 0 0 Z " fill="#000416" transform="translate(12,12)"/>
<path d="M0 0 C0 3 0 3 0 3 Z " fill="#01010D" transform="translate(33,2)"/>
<path d="M0 0 C0.66 0.33 1.32 0.66 2 1 C1.01 1 0.02 1 -1 1 C-0.67 0.67 -0.34 0.34 0 0 Z " fill="#010116" transform="translate(35,0)"/>
<path d="M0 0 C0.66 0 1.32 0 2 0 C1.67 0.66 1.34 1.32 1 2 C0.67 1.34 0.34 0.68 0 0 Z " fill="#C5C5C5" transform="translate(281,38)"/>
<path d="M0 0 C0.66 0 1.32 0 2 0 C1.67 0.66 1.34 1.32 1 2 C0.67 1.34 0.34 0.68 0 0 Z " fill="#0D0014" transform="translate(56,34)"/>
<path d="M0 0 C0.33 0.66 0.66 1.32 1 2 C0.34 1.67 -0.32 1.34 -1 1 C-0.67 0.67 -0.34 0.34 0 0 Z " fill="#02000E" transform="translate(57,24)"/>
<path d="M0 0 C0.33 0.66 0.66 1.32 1 2 C0.34 1.67 -0.32 1.34 -1 1 C-0.67 0.67 -0.34 0.34 0 0 Z " fill="#070113" transform="translate(35,18)"/>
<path d="M0 0 C0.66 0 1.32 0 2 0 C1.67 0.66 1.34 1.32 1 2 C0.67 1.34 0.34 0.68 0 0 Z " fill="#FFFFFF" transform="translate(74,17)"/>
<path d="M0 0 C0.66 0.66 1.32 1.32 2 2 C1.34 2 0.68 2 0 2 C0 1.34 0 0.68 0 0 Z " fill="#E2E2E2" transform="translate(156,13)"/>
<path d="" fill="#06001E" transform="translate(0,0)"/>
<path d="M0 0 C2 1 2 1 2 1 Z " fill="#FDFDFD" transform="translate(297,46)"/>
<path d="M0 0 C2 1 2 1 2 1 Z " fill="#D6D6D6" transform="translate(282,46)"/>
<path d="M0 0 C2 1 2 1 2 1 Z " fill="#C0C0C0" transform="translate(213,46)"/>
<path d="M0 0 C2 1 2 1 2 1 Z " fill="#FDFDFD" transform="translate(198,46)"/>
<path d="M0 0 C2 1 2 1 2 1 Z " fill="#FCFCFC" transform="translate(156,46)"/>
<path d="M0 0 C2 1 2 1 2 1 Z " fill="#BABABA" transform="translate(129,46)"/>
<path d="M0 0 C2 1 2 1 2 1 Z " fill="#FCFCFC" transform="translate(117,46)"/>
<path d="" fill="#C3C3C3" transform="translate(0,0)"/>
<path d="" fill="#BEBEBE" transform="translate(0,0)"/>
<path d="" fill="#888888" transform="translate(0,0)"/>
<path d="" fill="#F9F9F9" transform="translate(0,0)"/>
<path d="" fill="#808080" transform="translate(0,0)"/>
<path d="" fill="#BFBFBF" transform="translate(0,0)"/>
<path d="M0 0 C2 1 2 1 2 1 Z " fill="#BEBEBE" transform="translate(220,36)"/>
<path d="M0 0 C2 1 2 1 2 1 Z " fill="#D5D5D5" transform="translate(128,36)"/>
<path d="" fill="#0D0014" transform="translate(0,0)"/>
<path d="M0 0 C2 1 2 1 2 1 Z " fill="#BEBEBE" transform="translate(218,35)"/>
<path d="" fill="#D1D1D1" transform="translate(0,0)"/>
<path d="" fill="#FDFDFD" transform="translate(0,0)"/>
<path d="M0 0 C2 1 2 1 2 1 Z " fill="#BBBBBB" transform="translate(209,24)"/>
<path d="M0 0 C2 1 2 1 2 1 Z " fill="#FEFEFE" transform="translate(159,24)"/>
<path d="" fill="#FEFEFE" transform="translate(0,0)"/>
<path d="" fill="#03010F" transform="translate(0,0)"/>
<path d="M0 0 C2 1 2 1 2 1 Z " fill="#F7F7F7" transform="translate(207,23)"/>
<path d="" fill="#C1C1C1" transform="translate(0,0)"/>
<path d="" fill="#BEBEBE" transform="translate(0,0)"/>
<path d="" fill="#F9F9F9" transform="translate(0,0)"/>
<path d="" fill="#BFBFBF" transform="translate(0,0)"/>
<path d="" fill="#D1D1D1" transform="translate(0,0)"/>
<path d="M0 0 C2 1 2 1 2 1 Z " fill="#FFFFFF" transform="translate(215,15)"/>
<path d="" fill="#DFDFDF" transform="translate(0,0)"/>
<path d="M0 0 C2 1 2 1 2 1 Z " fill="#D0D0D0" transform="translate(259,14)"/>
<path d="M0 0 C2 1 2 1 2 1 Z " fill="#C1C1C1" transform="translate(213,14)"/>
<path d="" fill="#E0E0E0" transform="translate(0,0)"/>
<path d="M0 0 C2 1 2 1 2 1 Z " fill="#DADADA" transform="translate(179,14)"/>
<path d="M0 0 C2 1 2 1 2 1 Z " fill="#FEFEFE" transform="translate(211,13)"/>
<path d="" fill="#00000B" transform="translate(0,0)"/>
<path d="" fill="#0E001F" transform="translate(0,0)"/>
<path d="" fill="#FFFFFF" transform="translate(0,0)"/>
<path d="" fill="#FEFEFE" transform="translate(0,0)"/>
<path d="" fill="#15003F" transform="translate(0,0)"/>
<path d="" fill="#0D0120" transform="translate(0,0)"/>
<path d="" fill="#BFBFBF" transform="translate(0,0)"/>
<path d="" fill="#F8F8F8" transform="translate(0,0)"/>
<path d="" fill="#F7F7F7" transform="translate(0,0)"/>
<path d="" fill="#B0B0B0" transform="translate(0,0)"/>
<path d="" fill="#BDBDBD" transform="translate(0,0)"/>
<path d="" fill="#ADADAD" transform="translate(0,0)"/>
<path d="" fill="#C0C0C0" transform="translate(0,0)"/>
<path d="" fill="#FFFFFF" transform="translate(0,0)"/>
<path d="" fill="#808080" transform="translate(0,0)"/>
<path d="" fill="#100019" transform="translate(0,0)"/>
<path d="" fill="#00001D" transform="translate(0,0)"/>
<path d="" fill="#ABABAB" transform="translate(0,0)"/>
<path d="" fill="#B3B3B3" transform="translate(0,0)"/>
<path d="" fill="#ABABAB" transform="translate(0,0)"/>
<path d="" fill="#090002" transform="translate(0,0)"/>
<path d="" fill="#BFBFBF" transform="translate(0,0)"/>
<path d="" fill="#A7A6A7" transform="translate(0,0)"/>
<path d="" fill="#7E7E7E" transform="translate(0,0)"/>
<path d="" fill="#808281" transform="translate(0,0)"/>
<path d="" fill="#020000" transform="translate(0,0)"/>
<path d="" fill="#F9F9F9" transform="translate(0,0)"/>
<path d="" fill="#0C001D" transform="translate(0,0)"/>
<path d="" fill="#0A0014" transform="translate(0,0)"/>
<path d="" fill="#B1B1B1" transform="translate(0,0)"/>
<path d="" fill="#0F001B" transform="translate(0,0)"/>
<path d="" fill="#0E001B" transform="translate(0,0)"/>
<path d="" fill="#000007" transform="translate(0,0)"/>
<path d="" fill="#0A000C" transform="translate(0,0)"/>
<path d="" fill="#050008" transform="translate(0,0)"/>
<path d="" fill="#FFFFFF" transform="translate(0,0)"/>
<path d="" fill="#A3A3A3" transform="translate(0,0)"/>
<path d="" fill="#A7A6A7" transform="translate(0,0)"/>
<path d="" fill="#F9F9F9" transform="translate(0,0)"/>
<path d="" fill="#B9B9B9" transform="translate(0,0)"/>
<path d="" fill="#ADADAD" transform="translate(0,0)"/>
<path d="" fill="#080013" transform="translate(0,0)"/>
<path d="" fill="#B4B4B4" transform="translate(0,0)"/>
<path d="" fill="#B0B0B0" transform="translate(0,0)"/>
<path d="" fill="#FAFAFA" transform="translate(0,0)"/>
<path d="" fill="#F0F0F0" transform="translate(0,0)"/>
<path d="" fill="#F3F3F3" transform="translate(0,0)"/>
<path d="" fill="#B2B2B2" transform="translate(0,0)"/>
<path d="" fill="#FAFAFA" transform="translate(0,0)"/>
<path d="" fill="#858585" transform="translate(0,0)"/>
<path d="" fill="#060024" transform="translate(0,0)"/>
<path d="" fill="#848484" transform="translate(0,0)"/>
<path d="" fill="#BDBDBD" transform="translate(0,0)"/>
<path d="" fill="#A7A6A7" transform="translate(0,0)"/>
<path d="" fill="#01000D" transform="translate(0,0)"/>
<path d="" fill="#060309" transform="translate(0,0)"/>
<path d="" fill="#070506" transform="translate(0,0)"/>
<path d="" fill="#040030" transform="translate(0,0)"/>
<path d="" fill="#010007" transform="translate(0,0)"/>
<path d="" fill="#000200" transform="translate(0,0)"/>
<path d="" fill="#FFFFFF" transform="translate(0,0)"/>
<path d="" fill="#ACACAC" transform="translate(0,0)"/>
<path d="" fill="#ABABAB" transform="translate(0,0)"/>
<path d="" fill="#A9A9A9" transform="translate(0,0)"/>
<path d="" fill="#FEFEFE" transform="translate(0,0)"/>
<path d="" fill="#F8F8F8" transform="translate(0,0)"/>
<path d="" fill="#FFFFFF" transform="translate(0,0)"/>
<path d="" fill="#7F7F7F" transform="translate(0,0)"/>
<path d="" fill="#808080" transform="translate(0,0)"/>
<path d="" fill="#ABABAB" transform="translate(0,0)"/>
<path d="" fill="#B3B3B3" transform="translate(0,0)"/>
<path d="" fill="#070300" transform="translate(0,0)"/>
<path d="" fill="#ADADAD" transform="translate(0,0)"/>
<path d="" fill="#050517" transform="translate(0,0)"/>
<path d="" fill="#FFFFFF" transform="translate(0,0)"/>
<path d="" fill="#A2A2A2" transform="translate(0,0)"/>
<path d="" fill="#B0B0B0" transform="translate(0,0)"/>
<path d="" fill="#A7A6A7" transform="translate(0,0)"/>
<path d="" fill="#020114" transform="translate(0,0)"/>
<path d="" fill="#A9A9A9" transform="translate(0,0)"/>
<path d="" fill="#00000B" transform="translate(0,0)"/>
<path d="" fill="#A9A9A9" transform="translate(0,0)"/>
<path d="" fill="#FFFFFF" transform="translate(0,0)"/>
<path d="" fill="#C6C6C6" transform="translate(0,0)"/>
<path d="" fill="#FAFAFA" transform="translate(0,0)"/>
<path d="" fill="#FFFFFF" transform="translate(0,0)"/>
<path d="" fill="#FFFFFF" transform="translate(0,0)"/>
<path d="" fill="#BDBDBD" transform="translate(0,0)"/>
<path d="" fill="#080017" transform="translate(0,0)"/>
<path d="" fill="#060010" transform="translate(0,0)"/>
<path d="" fill="#BABABA" transform="translate(0,0)"/>
<path d="" fill="#ADADAD" transform="translate(0,0)"/>
<path d="" fill="#F9F9F9" transform="translate(0,0)"/>
<path d="" fill="#FAFAFA" transform="translate(0,0)"/>
<path d="" fill="#000009" transform="translate(0,0)"/>
<path d="" fill="#000205" transform="translate(0,0)"/>
<path d="" fill="#BEBEBE" transform="translate(0,0)"/>
<path d="" fill="#BFBFBF" transform="translate(0,0)"/>
<path d="" fill="#000110" transform="translate(0,0)"/>
<path d="" fill="#B1B1B1" transform="translate(0,0)"/>
<path d="" fill="#FFFFFF" transform="translate(0,0)"/>
<path d="" fill="#ABABAB" transform="translate(0,0)"/>
<path d="" fill="#FFFFFF" transform="translate(0,0)"/>
<path d="" fill="#FFFFFF" transform="translate(0,0)"/>
<path d="" fill="#FEFEFE" transform="translate(0,0)"/>
<path d="" fill="#FFFFFF" transform="translate(0,0)"/>
<path d="" fill="#06001D" transform="translate(0,0)"/>
<path d="" fill="#07000E" transform="translate(0,0)"/>
<path d="" fill="#09071F" transform="translate(0,0)"/>
<path d="" fill="#05031F" transform="translate(0,0)"/>
<path d="" fill="#C1C1C1" transform="translate(0,0)"/>
<path d="" fill="#000913" transform="translate(0,0)"/>
</svg>
